<svg xmlns="http://www.w3.org/2000/svg" width="16" height="16" viewBox="0 0 16 16">
    <g fill="none" fill-rule="evenodd">
        <g fill="#5383E8" fill-rule="nonzero">
            <g>
                <path d="M9 10c0-.552.447-1 1-1 .553 0 1 .448 1 1s-.447 1-1 1c-.553 0-1-.448-1-1zM7 8c0-.553.448-1 1-1 .553 0 1 .447 1 1 0 .552-.447 1-1 1-.552 0-1-.448-1-1zm0 4c0-.552.448-1 1-1 .553 0 1 .448 1 1 0 .553-.447 1-1 1-.552 0-1-.447-1-1zm-2-2c0-.552.448-1 1-1s1 .448 1 1-.448 1-1 1-1-.448-1-1zm5-10l2 4-1 1H9L8 4 7 5H5L4 4l2-4-6 4 2 4 3 8 1-1h4l1 1 3-8 2-4-6-4z" transform="translate(-1668 -927) translate(1668 927)"/>
            </g>
        </g>
    </g>
</svg>
